<?xml version="1.0" encoding="UTF-8" ?>
<!DOCTYPE svg PUBLIC "-//W3C//DTD SVG 1.1//EN" "http://www.w3.org/Graphics/SVG/1.1/DTD/svg11.dtd">
<svg width="727pt" height="705pt" viewBox="0 0 727 705" version="1.1" xmlns="http://www.w3.org/2000/svg">
<g id="#ffffffff">
<path fill="#ffffff" opacity="1.00" d=" M 345.42 77.20 C 346.25 74.79 347.21 72.40 348.60 70.25 C 364.51 91.41 378.49 113.92 393.09 135.98 C 394.13 137.58 395.53 138.87 397.00 140.07 C 399.85 137.78 401.53 134.49 403.58 131.53 C 414.30 115.58 424.43 99.24 435.34 83.41 C 438.58 79.04 441.37 74.33 445.03 70.28 C 451.80 84.85 456.94 100.14 463.01 115.01 C 467.78 127.53 472.89 139.91 478.24 152.19 C 488.58 143.65 498.01 133.99 507.69 124.68 C 518.30 115.31 528.07 104.94 539.06 96.01 C 540.99 101.25 540.37 107.00 542.11 112.32 C 543.81 126.93 546.82 141.36 548.57 155.97 C 550.44 166.29 551.76 176.76 554.45 186.90 C 577.98 174.75 601.84 163.22 625.72 151.78 C 626.06 161.28 623.53 170.55 623.25 180.02 C 623.28 183.67 622.27 187.22 621.93 190.84 C 621.48 194.88 622.23 199.03 621.07 202.99 C 620.23 205.90 620.97 209.01 620.05 211.91 C 619.05 215.03 619.86 218.38 618.88 221.50 C 617.95 224.70 618.62 228.11 617.72 231.32 C 616.68 235.68 616.01 240.45 618.57 244.44 C 643.92 244.51 669.34 244.53 694.59 241.93 C 694.34 245.42 692.48 248.48 690.97 251.55 C 686.32 260.38 682.36 269.59 677.09 278.09 C 673.88 284.01 671.32 290.28 667.62 295.93 C 664.08 302.60 660.84 309.43 657.40 316.15 C 656.12 318.74 654.44 321.26 654.39 324.24 C 672.64 335.03 690.78 346.03 708.77 357.25 C 713.73 360.49 719.03 363.19 723.77 366.76 C 717.42 372.10 709.91 375.75 702.92 380.15 C 688.05 389.73 672.81 398.72 657.62 407.78 C 656.13 408.87 653.18 410.17 654.64 412.46 C 664.43 431.81 674.56 451.00 684.88 470.08 C 688.29 476.65 692.19 482.97 695.32 489.69 C 670.51 489.84 645.70 489.47 620.90 489.67 C 619.48 489.88 618.17 490.46 616.82 490.88 C 616.47 500.34 619.24 509.56 619.55 518.97 C 619.80 521.29 620.77 523.53 620.60 525.92 C 620.47 534.01 622.10 541.98 623.20 549.95 C 622.83 560.59 625.95 570.93 625.96 581.55 C 624.10 580.99 622.17 580.61 620.43 579.73 C 608.67 573.93 597.01 567.92 585.20 562.21 C 579.78 560.23 574.65 557.55 569.66 554.68 C 566.46 553.03 563.32 555.58 560.43 556.72 C 553.93 559.04 548.10 562.86 541.56 565.07 C 533.55 568.93 524.95 571.30 516.88 574.98 C 514.34 576.29 516.59 578.95 517.16 580.79 C 522.20 591.31 528.82 602.89 525.21 614.93 C 522.85 620.66 517.54 624.76 512.06 627.35 C 505.78 630.79 498.82 632.65 491.90 634.29 C 484.64 634.44 477.36 634.39 470.09 634.32 C 461.94 632.13 453.75 629.14 446.93 624.06 C 442.51 619.55 436.90 615.43 435.29 609.02 C 438.72 602.52 444.13 597.30 449.94 592.91 C 450.90 592.26 451.51 591.27 452.06 590.29 C 447.57 589.96 443.22 591.30 438.86 592.11 C 435.68 592.57 432.39 591.84 429.27 592.74 C 423.81 594.47 417.95 592.53 412.46 594.01 C 409.71 594.85 406.82 594.64 403.99 594.65 C 388.64 594.62 373.28 594.67 357.93 594.63 C 349.29 592.47 340.27 593.83 331.43 593.45 C 331.25 597.01 331.55 600.55 332.51 604.00 C 332.70 609.24 333.94 615.66 329.45 619.55 C 323.65 626.41 315.26 630.74 306.46 632.19 C 302.99 632.93 299.72 634.81 296.06 634.39 C 289.59 634.06 282.95 635.20 276.66 633.27 C 269.37 632.09 262.14 629.96 255.72 626.24 C 251.84 623.48 248.36 620.05 245.61 616.17 C 243.98 610.63 244.11 603.79 248.40 599.44 C 254.30 592.65 263.24 589.90 271.52 587.25 C 272.06 586.91 273.13 586.24 273.67 585.90 C 269.82 583.50 265.21 583.65 261.00 582.35 C 257.63 581.49 254.37 580.22 250.93 579.70 C 243.34 578.35 236.11 575.56 228.52 574.21 C 219.92 570.93 210.76 569.45 202.17 566.16 C 191.32 562.02 180.33 558.27 169.79 553.39 C 163.95 550.33 157.48 548.60 152.03 544.79 C 129.26 532.81 107.38 518.94 87.59 502.44 C 74.21 489.42 60.63 476.07 51.75 459.45 C 50.52 457.05 49.13 453.67 45.94 453.73 C 39.29 454.79 32.79 457.13 25.97 456.38 C 8.61 454.88 -2.42 433.82 4.43 418.31 C 7.29 410.29 15.01 404.90 22.98 402.78 C 35.53 400.53 46.80 408.17 56.13 415.56 C 70.57 404.65 88.15 399.63 104.66 392.84 C 106.86 391.79 109.51 391.06 110.84 388.85 C 123.43 369.31 127.60 345.85 138.85 325.64 C 140.70 323.33 138.73 320.73 137.72 318.55 C 134.47 312.66 131.97 306.37 128.33 300.70 C 125.61 296.23 123.72 291.32 121.02 286.84 C 116.39 279.34 112.87 271.23 108.79 263.44 C 105.32 256.52 101.67 249.59 99.68 242.06 C 125.20 244.27 150.85 244.64 176.45 244.51 C 176.83 240.24 177.24 235.84 176.01 231.67 C 174.39 217.14 173.24 202.48 170.74 188.04 C 170.85 180.27 170.23 172.48 168.52 164.89 C 168.11 160.58 168.30 156.22 168.16 151.89 C 189.41 161.81 210.23 172.65 231.42 182.72 C 234.25 184.04 236.98 185.94 240.23 185.96 C 240.67 182.37 241.13 178.80 241.55 175.21 C 243.89 164.74 245.13 154.07 246.69 143.46 C 249.76 127.69 251.34 111.64 254.89 95.98 C 259.84 98.83 263.28 103.67 267.55 107.42 C 281.53 120.43 295.41 133.53 309.05 146.91 C 311.22 148.70 312.96 151.13 315.66 152.17 C 325.86 127.30 335.86 102.34 345.42 77.20 Z" />
</g>
</svg>
